<?xml version="1.0" encoding="iso-8859-1"?>
<!-- Generator: Adobe Illustrator 19.0.0, SVG Export Plug-In . SVG Version: 6.00 Build 0)  -->
<svg version="1.1" id="Layer_1" xmlns="http://www.w3.org/2000/svg" xmlns:xlink="http://www.w3.org/1999/xlink" x="0px" y="0px"
	 viewBox="0 0 512 512" style="enable-background:new 0 0 512 512;" xml:space="preserve">
<g>
	<polygon style="fill:#333E48;" points="312.094,345.317 199.906,345.317 186.19,431.279 325.81,431.279 	"/>
	<path style="fill:#333E48;" d="M504,65.554c0-11.733-9.6-21.333-21.333-21.333H29.333C17.6,44.22,8,53.82,8,65.554v288.299
		c0,11.733,9.6,21.333,21.333,21.333h453.333c11.733,0,21.333-9.6,21.333-21.333V65.554z"/>
</g>
<rect x="51.019" y="87.958" style="fill:#FFFFFF;" width="409.963" height="227.488"/>
<rect x="82.144" y="128.502" style="fill:#FF9E16;" width="121.589" height="58.933"/>
<rect x="82.144" y="223.222" style="fill:#0055B8;" width="121.589" height="58.933"/>
<rect x="243.733" y="128.502" style="fill:#4BB6AA;" width="182.325" height="153.653"/>
<path style="fill:#333E48;" d="M335.927,197.89l31.265,31.265c2.905,2.905,2.905,7.657,0,10.56l-8.594,8.596
	c-2.903,2.905-7.654,2.905-10.558,0.001l-31.267-31.266l-11.077,27.43c-1.537,3.807-3.705,3.687-4.815-0.266L278.61,164.9
	c-1.11-3.953,1.217-6.281,5.171-5.17l79.311,22.27c3.954,1.11,4.073,3.277,0.264,4.815L335.927,197.89z"/>
<path style="fill:#0071CE;" d="M8,315.448v38.404c0,11.733,9.6,21.333,21.333,21.333h453.333c11.733,0,21.333-9.6,21.333-21.333
	v-38.404H8z"/>
<circle style="fill:#333E48;" cx="256" cy="345.313" r="8"/>
<path style="fill:#0071CE;" d="M344.061,467.781c10.079,0,18.25-8.171,18.25-18.25c0-10.08-8.171-18.251-18.25-18.251H167.939
	c-10.08,0-18.251,8.171-18.251,18.251c0,10.079,8.171,18.25,18.251,18.25H344.061z"/>
<path style="fill:#1E252B;" d="M482.667,36.22H29.333C13.158,36.22,0,49.379,0,65.554v288.299c0,16.175,13.158,29.333,29.333,29.333
	h156.429l-6.397,40.094H167.94c-14.475,0-26.251,11.776-26.251,26.251c0,14.475,11.776,26.25,26.251,26.25h176.121
	c14.474,0,26.25-11.776,26.25-26.25c0-14.475-11.776-26.251-26.25-26.251h-11.425l-6.398-40.094h156.429
	c16.174,0,29.333-13.158,29.333-29.333V65.554C512,49.379,498.841,36.22,482.667,36.22z M344.061,439.279
	c5.652,0,10.25,4.598,10.25,10.251c0,5.652-4.597,10.25-10.25,10.25H167.939c-5.652,0-10.251-4.598-10.251-10.25
	c0-5.652,4.598-10.251,10.251-10.251H344.061z M195.567,423.279l6.398-40.094h108.07l6.398,40.094H195.567z M496,353.852
	c0,7.353-5.981,13.333-13.333,13.333H29.333c-7.353,0-13.333-5.981-13.333-13.333v-30.404h480V353.852z M59.019,307.448V95.956
	h393.964v211.492H59.019z M496,307.448h-27.018V87.956c0-4.418-3.581-8-8-8H51.019c-4.418,0-8,3.582-8,8v219.492H16V65.554
	c0-7.353,5.981-13.333,13.333-13.333h453.333c7.353,0,13.333,5.981,13.333,13.333V307.448z"/>
<g>
</g>
<g>
</g>
<g>
</g>
<g>
</g>
<g>
</g>
<g>
</g>
<g>
</g>
<g>
</g>
<g>
</g>
<g>
</g>
<g>
</g>
<g>
</g>
<g>
</g>
<g>
</g>
<g>
</g>
</svg>
